<svg width="16" height="16" viewBox="0 0 16 16" fill="none" xmlns="http://www.w3.org/2000/svg">
<path fill-rule="evenodd" clip-rule="evenodd" d="M7.22222 2C4.33807 2 2 4.33807 2 7.22222C2 10.1064 4.33807 12.4444 7.22222 12.4444C8.62363 12.4444 9.8961 11.8924 10.8341 10.994C10.8574 10.9648 10.8825 10.9366 10.9096 10.9096C10.9366 10.8825 10.9648 10.8574 10.994 10.8341C11.8924 9.8961 12.4444 8.62363 12.4444 7.22222C12.4444 4.33807 10.1064 2 7.22222 2ZM12.9873 11.5731C13.902 10.363 14.4444 8.85598 14.4444 7.22222C14.4444 3.2335 11.2109 0 7.22222 0C3.2335 0 0 3.2335 0 7.22222C0 11.2109 3.2335 14.4444 7.22222 14.4444C8.85598 14.4444 10.363 13.902 11.5731 12.9873L14.2929 15.7071C14.6834 16.0976 15.3166 16.0976 15.7071 15.7071C16.0976 15.3166 16.0976 14.6834 15.7071 14.2929L12.9873 11.5731Z" fill="#0B1A8E"/>
</svg>
